<?xml version="1.0" encoding="UTF-8"?>
<svg version="1.1" xmlns="http://www.w3.org/2000/svg" width="165" height="165">
<path d="M0 0 C54.45 0 108.9 0 165 0 C165 54.45 165 108.9 165 165 C110.55 165 56.1 165 0 165 C0 110.55 0 56.1 0 0 Z " fill="#FDFEFE" transform="translate(0,0)"/>
<path d="M0 0 C0.495 1.485 0.495 1.485 1 3 C1.66 2.01 2.32 1.02 3 0 C4.83792973 5.7308675 4.05484348 12.07690436 4 18 C8.95 18 13.9 18 19 18 C16.1709277 20.8290723 15.61855575 21.37611108 12 22 C11.505 24.475 11.505 24.475 11 27 C9.16830682 27.48539869 7.33453941 27.96297186 5.5 28.4375 C4.4790625 28.70433594 3.458125 28.97117187 2.40625 29.24609375 C-4.61950307 30.80110561 -11.33790113 31.13832026 -18.5 31.0625 C-19.73363281 31.05573242 -19.73363281 31.05573242 -20.9921875 31.04882812 C-22.99482396 31.03718489 -24.99742227 31.01925556 -27 31 C-27.66 29.02 -28.32 27.04 -29 25 C-29.64549805 25.2673999 -30.29099609 25.5347998 -30.95605469 25.81030273 C-33.88619259 27.02223769 -36.8180686 28.22991075 -39.75 29.4375 C-40.76578125 29.85837891 -41.7815625 30.27925781 -42.828125 30.71289062 C-44.29765625 31.31713867 -44.29765625 31.31713867 -45.796875 31.93359375 C-46.69760742 32.30540771 -47.59833984 32.67722168 -48.52636719 33.06030273 C-52.58387508 34.6016912 -55.90906908 35.11961751 -60.25 35.0625 C-61.14203125 35.05347656 -62.0340625 35.04445312 -62.953125 35.03515625 C-63.62859375 35.02355469 -64.3040625 35.01195312 -65 35 C-64.34 34.34 -63.68 33.68 -63 33 C-64.65 32.01 -66.3 31.02 -68 30 C-65.66666667 30 -63.33333333 30 -61 30 C-61.47529023 25.38640693 -63.1432792 23.42445012 -66.375 20.1875 C-70.39690486 15.92261838 -72.43896279 12.61973395 -74 7 C-72.7625 6.54625 -71.525 6.0925 -70.25 5.625 C-67.96389464 4.78127043 -65.93197025 3.96112586 -63.8125 2.75 C-61.23679554 1.68419126 -59.61271234 2.17493294 -57 3 C-56.34 3.66 -55.68 4.32 -55 5 C-57.01822917 4.96744792 -59.03645833 4.93489583 -61.0546875 4.90234375 C-63.08185404 4.87350758 -63.08185404 4.87350758 -65 6 C-62.5424552 6.66969591 -60.08405076 7.3358768 -57.625 8 C-56.92632812 8.19078125 -56.22765625 8.3815625 -55.5078125 8.578125 C-51.80669985 9.62910279 -51.80669985 9.62910279 -48 10 C-48 9.01 -48 8.02 -48 7 C-49.32 6.34 -50.64 5.68 -52 5 C-51 3 -51 3 -49 1 C-44.80054268 0.82975173 -41.03098501 1.37135061 -37.4375 3.5625 C-36.963125 4.036875 -36.48875 4.51125 -36 5 C-40.455 4.01 -40.455 4.01 -45 3 C-45 3.99 -45 4.98 -45 6 C-44.36191406 6.19335938 -43.72382812 6.38671875 -43.06640625 6.5859375 C-41.82697266 6.97652344 -41.82697266 6.97652344 -40.5625 7.375 C-39.73878906 7.63023438 -38.91507813 7.88546875 -38.06640625 8.1484375 C-36 9 -36 9 -35 11 C-34.2575 11.144375 -33.515 11.28875 -32.75 11.4375 C-29.65934668 12.06967909 -27.65926702 13.34694212 -25 15 C-24.34 15 -23.68 15 -23 15 C-22.95875 14.113125 -22.9175 13.22625 -22.875 12.3125 C-21.74245665 8.02501448 -19.52218743 6.37727775 -16 4 C-15.45988281 3.60425781 -14.91976562 3.20851563 -14.36328125 2.80078125 C-9.64801368 -0.33173917 -5.5529962 -0.45330581 0 0 Z " fill="#DDE8F0" transform="translate(105,71)"/>
<path d="M0 0 C9.06265256 7.12864734 16.34273521 18.48954276 18 30 C19.16836038 47.2790168 19.16836038 47.2790168 16 52 C14.23890187 50.23890187 14.66093943 47.84009372 14.45629883 45.4765625 C13.24181592 32.00083268 9.29701546 20.71569591 -0.83984375 11.2890625 C-12.25102731 2.09477554 -24.40043441 -0.02994687 -38.68359375 1.23828125 C-49.24730685 2.9115734 -59.46874088 8.93944093 -65.875 17.5078125 C-72.8403304 27.92678589 -74.48608958 36.54210269 -75 49 C-76.485 49.495 -76.485 49.495 -78 50 C-81.52629719 39.02929763 -79.75426236 27.89702578 -74.9375 17.625 C-67.6739249 4.44851459 -57.42511344 -4.15643378 -42.9921875 -8.62109375 C-27.73684659 -12.58529524 -12.91781544 -8.69273965 0 0 Z " fill="#169CF9" transform="translate(109,26)"/>
<path d="M0 0 C3.15225404 2.43924419 3.94439574 3.57277391 4.46875 7.6015625 C4.49778463 8.94243447 4.50770784 10.28383586 4.5 11.625 C4.48541279 14.19234936 4.6393115 16.43310016 5 19 C6.73824965 20.67184683 6.73824965 20.67184683 9 21 C9.99 20.67 10.98 20.34 12 20 C12 20.99 12 21.98 12 23 C12.99 23 13.98 23 15 23 C15 22.34 15 21.68 15 21 C15.66 21 16.32 21 17 21 C17 21.99 17 22.98 17 24 C19.64 24.66 22.28 25.32 25 26 C25 27.32 25 28.64 25 30 C16.585 30.495 16.585 30.495 8 31 C5.53976814 35.89933237 5.53976814 35.89933237 3.3125 40.875 C2.6628125 42.421875 2.6628125 42.421875 2 44 C1.01 44 0.02 44 -1 44 C-3.475 37.565 -3.475 37.565 -6 31 C-11.94 30.67 -17.88 30.34 -24 30 C-23.67 28.68 -23.34 27.36 -23 26 C-21.865625 25.731875 -20.73125 25.46375 -19.5625 25.1875 C-18.386875 24.795625 -17.21125 24.40375 -16 24 C-15.67 23.01 -15.34 22.02 -15 21 C-14.67 21.66 -14.34 22.32 -14 23 C-13.01 22.67 -12.02 22.34 -11 22 C-10.67 21.34 -10.34 20.68 -10 20 C-8.7934375 20.0309375 -8.7934375 20.0309375 -7.5625 20.0625 C-5.06645115 20.29633621 -5.06645115 20.29633621 -4 19 C-3.84084709 16.93985399 -3.72295071 14.87646146 -3.625 12.8125 C-3.28508629 7.74165615 -2.78497858 4.23801088 0 0 Z " fill="#394175" transform="translate(77,38)"/>
<path d="M0 0 C0.33 0.99 0.66 1.98 1 3 C1.66 2.01 2.32 1.02 3 0 C4.83792973 5.7308675 4.05484348 12.07690436 4 18 C8.95 18 13.9 18 19 18 C16.1709277 20.8290723 15.61855575 21.37611108 12 22 C11.505 24.475 11.505 24.475 11 27 C-1.34165807 30.27053939 -12.33220264 31.13836186 -25 31 C-25.33 30.01 -25.66 29.02 -26 28 C-25.28972656 27.93941406 -24.57945313 27.87882812 -23.84765625 27.81640625 C-22.46900391 27.69072266 -22.46900391 27.69072266 -21.0625 27.5625 C-20.14597656 27.48128906 -19.22945313 27.40007812 -18.28515625 27.31640625 C-16.03840268 27.23955024 -16.03840268 27.23955024 -15 26 C-15.66 25.34 -16.32 24.68 -17 24 C-15.35 24 -13.7 24 -12 24 C-11.773125 23.360625 -11.54625 22.72125 -11.3125 22.0625 C-10 20 -10 20 -7.375 19.25 C-6.199375 19.12625 -6.199375 19.12625 -5 19 C-5.33 18.01 -5.66 17.02 -6 16 C-5.01 16.33 -4.02 16.66 -3 17 C-2.67 16.34 -2.34 15.68 -2 15 C-3.051875 15.185625 -4.10375 15.37125 -5.1875 15.5625 C-8.57119882 15.95079331 -10.76425888 15.88247485 -14 15 C-13.01 14.67 -12.02 14.34 -11 14 C-11 12.35 -11 10.7 -11 9 C-13.97 9 -16.94 9 -20 9 C-15.9054033 0.8108066 -8.58555629 -0.68139336 0 0 Z " fill="#3B4275" transform="translate(105,71)"/>
<path d="M0 0 C0.66 0.66 1.32 1.32 2 2 C-0.01822917 1.96744792 -2.03645833 1.93489583 -4.0546875 1.90234375 C-6.08185404 1.87350758 -6.08185404 1.87350758 -8 3 C-7.12601563 3.21914062 -6.25203125 3.43828125 -5.3515625 3.6640625 C2.03481646 5.56872626 9.31958046 7.66615485 16.5625 10.0625 C17.31128418 10.30758301 18.06006836 10.55266602 18.83154297 10.80517578 C23.08075831 12.23304203 27.03034438 13.88661304 31 16 C31 15.34 31 14.68 31 14 C33.61381519 11.28163221 34.91054943 11.00447253 38.75 10.8125 C39.8225 10.874375 40.895 10.93625 42 11 C41.34 11.99 40.68 12.98 40 14 C39.63858045 16.32914823 39.30300475 18.66253478 39 21 C38 22 38 22 34.4375 22.0625 C33.303125 22.041875 32.16875 22.02125 31 22 C30.87625 21.21625 30.7525 20.4325 30.625 19.625 C29.33227242 16.89155072 29.33227242 16.89155072 27.25585938 16.46875 C26.50111328 16.3553125 25.74636719 16.241875 24.96875 16.125 C20.1628334 15.27476883 15.50668567 14.12584165 10.8046875 12.8359375 C9.71941269 12.53884384 9.71941269 12.53884384 8.61221313 12.23574829 C6.36573337 11.61815691 4.1203537 10.99667144 1.875 10.375 C0.3308164 9.95020359 -1.21345382 9.52572195 -2.7578125 9.1015625 C-6.50621651 8.07133305 -10.25342396 7.03685647 -14 6 C-14 6.66 -14 7.32 -14 8 C-12.80503906 8.08121094 -11.61007813 8.16242188 -10.37890625 8.24609375 C-3.67466591 8.99100934 2.63698408 11.08462987 9.0625 13.0625 C10.30966797 13.43955078 11.55683594 13.81660156 12.84179688 14.20507812 C15.89672536 15.12974996 18.94928493 16.0615392 22 17 C22 17.33 22 17.66 22 18 C14.48739603 17.53084891 7.59572459 16.0150249 0.375 13.9375 C-0.62917969 13.65583984 -1.63335937 13.37417969 -2.66796875 13.08398438 C-5.11417618 12.39671657 -7.557981 11.70197633 -10 11 C-9.50628906 11.65226562 -9.01257812 12.30453125 -8.50390625 12.9765625 C-7.86324219 13.85054687 -7.22257812 14.72453125 -6.5625 15.625 C-5.92441406 16.48351562 -5.28632812 17.34203125 -4.62890625 18.2265625 C-2.86822073 21.22437238 -2.35742365 23.56671931 -2 27 C-2.66 26.01 -3.32 25.02 -4 24 C-5.45389326 22.28788631 -6.91283233 20.58005267 -8.375 18.875 C-12.25455255 14.1833028 -14.97646804 9.73098212 -17 4 C-15.7625 3.54625 -14.525 3.0925 -13.25 2.625 C-10.96389464 1.78127043 -8.93197025 0.96112586 -6.8125 -0.25 C-4.23679554 -1.31580874 -2.61271234 -0.82506706 0 0 Z " fill="#3E4678" transform="translate(48,74)"/>
<path d="M0 0 C7.78706907 0.89253782 7.78706907 0.89253782 10.9765625 4.08203125 C6.5215625 3.09203125 6.5215625 3.09203125 1.9765625 2.08203125 C1.9765625 3.07203125 1.9765625 4.06203125 1.9765625 5.08203125 C2.93369141 5.37207031 2.93369141 5.37207031 3.91015625 5.66796875 C4.73644531 5.92835937 5.56273437 6.18875 6.4140625 6.45703125 C7.23777344 6.71226563 8.06148437 6.9675 8.91015625 7.23046875 C10.9765625 8.08203125 10.9765625 8.08203125 11.9765625 10.08203125 C12.7190625 10.22640625 13.4615625 10.37078125 14.2265625 10.51953125 C17.3304216 11.15441152 19.33497318 12.36856791 21.9765625 14.08203125 C22.6365625 14.41203125 23.2965625 14.74203125 23.9765625 15.08203125 C22.9865625 15.41203125 21.9965625 15.74203125 20.9765625 16.08203125 C20.9765625 16.74203125 20.9765625 17.40203125 20.9765625 18.08203125 C13.53354153 15.68512619 6.25819098 12.92940684 -1.0234375 10.08203125 C-1.0234375 8.76203125 -1.0234375 7.44203125 -1.0234375 6.08203125 C-2.3434375 5.42203125 -3.6634375 4.76203125 -5.0234375 4.08203125 C-3.74496232 1.52508089 -2.98490247 0.12100956 0 0 Z M24.9765625 8.08203125 C28.6065625 8.08203125 32.2365625 8.08203125 35.9765625 8.08203125 C35.9765625 9.73203125 35.9765625 11.38203125 35.9765625 13.08203125 C39.1729711 14.14750078 41.63403526 14.15630963 44.9765625 14.08203125 C44.6465625 15.07203125 44.3165625 16.06203125 43.9765625 17.08203125 C43.3165625 16.75203125 42.6565625 16.42203125 41.9765625 16.08203125 C41.9765625 16.74203125 41.9765625 17.40203125 41.9765625 18.08203125 C40.64625 18.63890625 40.64625 18.63890625 39.2890625 19.20703125 C35.77650302 20.88407602 35.77650302 20.88407602 33.7265625 24.26953125 C30.9765625 27.08203125 30.9765625 27.08203125 28.44140625 27.46875 C25.92721951 27.45814162 23.47629954 27.3441396 20.9765625 27.08203125 C21.3065625 28.07203125 21.6365625 29.06203125 21.9765625 30.08203125 C20.9865625 29.75203125 19.9965625 29.42203125 18.9765625 29.08203125 C17.7890625 26.01953125 17.7890625 26.01953125 16.9765625 23.08203125 C18.2965625 22.09203125 19.6165625 21.10203125 20.9765625 20.08203125 C20.9765625 21.40203125 20.9765625 22.72203125 20.9765625 24.08203125 C24.4415625 23.58703125 24.4415625 23.58703125 27.9765625 23.08203125 C28.1003125 21.96828125 28.2240625 20.85453125 28.3515625 19.70703125 C28.9765625 16.08203125 28.9765625 16.08203125 30.9765625 14.08203125 C28.6665625 14.08203125 26.3565625 14.08203125 23.9765625 14.08203125 C24.3065625 12.10203125 24.6365625 10.12203125 24.9765625 8.08203125 Z " fill="#5A5F88" transform="translate(58.0234375,71.91796875)"/>
<path d="M0 0 C2.9375 1.5625 2.9375 1.5625 5 4 C6.21645511 8.10553601 6.26054288 10.2732225 4.8125 14.3125 C2.92966388 17.10429148 2.18986547 18.08860987 -1 19 C-5.64737625 19.49440173 -8.24757 18.78751943 -12 16 C-13.74465448 12.51069104 -13.56450552 8.80713023 -13 5 C-9.60713225 -0.19532875 -5.85288158 -1.25334434 0 0 Z " fill="#52C031" transform="translate(99,32)"/>
<path d="M0 0 C0 6.93 0 13.86 0 21 C1.32 21.33 2.64 21.66 4 22 C3.34 22.99 2.68 23.98 2 25 C-0.31 24.34 -2.62 23.68 -5 23 C-5.33 24.32 -5.66 25.64 -6 27 C-7.32 27 -8.64 27 -10 27 C-10 25.35 -10 23.7 -10 22 C-9.01 21.67 -8.02 21.34 -7 21 C-7 20.34 -7 19.68 -7 19 C-6.34 19 -5.68 19 -5 19 C-5.33 18.01 -5.66 17.02 -6 16 C-5.01 16.33 -4.02 16.66 -3 17 C-2.67 16.34 -2.34 15.68 -2 15 C-3.051875 15.185625 -4.10375 15.37125 -5.1875 15.5625 C-8.57119882 15.95079331 -10.76425888 15.88247485 -14 15 C-13.01 14.67 -12.02 14.34 -11 14 C-11 12.35 -11 10.7 -11 9 C-13.97 9 -16.94 9 -20 9 C-18.02226747 5.04453494 -17.52614992 4.3006571 -13.9375 2.25 C-13.22464844 1.82203125 -12.51179688 1.3940625 -11.77734375 0.953125 C-9 0 -9 0 0 0 Z " fill="#565C87" transform="translate(105,71)"/>
<path d="M0 0 C5.04452584 2.41618644 9.9010867 5.1620662 14 9 C14.625 12.9375 14.625 12.9375 14 16 C11.85423363 16.02685938 9.70837355 16.04633088 7.5625 16.0625 C6.36753906 16.07410156 5.17257813 16.08570312 3.94140625 16.09765625 C1 16 1 16 0 15 C-0.07313567 12.46950598 -0.09247527 9.96695163 -0.0625 7.4375 C-0.05798828 6.72658203 -0.05347656 6.01566406 -0.04882812 5.28320312 C-0.03700864 3.52209987 -0.01907263 1.76103964 0 0 Z " fill="#36AEE0" transform="translate(110,72)"/>
<path d="M0 0 C0.66 0.66 1.32 1.32 2 2 C0.2365625 1.9071875 0.2365625 1.9071875 -1.5625 1.8125 C-6.08117282 1.8125 -9.04599993 2.82126527 -13 5 C-13.33 5.99 -13.66 6.98 -14 8 C-12.80503906 8.08121094 -11.61007813 8.16242188 -10.37890625 8.24609375 C-3.67466591 8.99100934 2.63698408 11.08462987 9.0625 13.0625 C10.30966797 13.43955078 11.55683594 13.81660156 12.84179688 14.20507812 C15.89672536 15.12974996 18.94928493 16.0615392 22 17 C22 17.33 22 17.66 22 18 C14.48739603 17.53084891 7.59572459 16.0150249 0.375 13.9375 C-0.62917969 13.65583984 -1.63335937 13.37417969 -2.66796875 13.08398438 C-5.11417618 12.39671657 -7.557981 11.70197633 -10 11 C-9.50628906 11.65226562 -9.01257812 12.30453125 -8.50390625 12.9765625 C-7.86324219 13.85054687 -7.22257812 14.72453125 -6.5625 15.625 C-5.92441406 16.48351562 -5.28632812 17.34203125 -4.62890625 18.2265625 C-2.86822073 21.22437238 -2.35742365 23.56671931 -2 27 C-2.66 26.01 -3.32 25.02 -4 24 C-5.45389326 22.28788631 -6.91283233 20.58005267 -8.375 18.875 C-12.25455255 14.1833028 -14.97646804 9.73098212 -17 4 C-15.7625 3.54625 -14.525 3.0925 -13.25 2.625 C-10.96389464 1.78127043 -8.93197025 0.96112586 -6.8125 -0.25 C-4.23679554 -1.31580874 -2.61271234 -0.82506706 0 0 Z " fill="#525883" transform="translate(48,74)"/>
<path d="M0 0 C7.78706907 0.89253782 7.78706907 0.89253782 10.9765625 4.08203125 C6.5215625 3.09203125 6.5215625 3.09203125 1.9765625 2.08203125 C1.9765625 3.07203125 1.9765625 4.06203125 1.9765625 5.08203125 C2.93369141 5.37207031 2.93369141 5.37207031 3.91015625 5.66796875 C4.73644531 5.92835937 5.56273437 6.18875 6.4140625 6.45703125 C7.23777344 6.71226563 8.06148437 6.9675 8.91015625 7.23046875 C10.9765625 8.08203125 10.9765625 8.08203125 11.9765625 10.08203125 C12.7396875 10.22640625 13.5028125 10.37078125 14.2890625 10.51953125 C17.30660973 11.1511109 18.8023706 11.90783935 20.9765625 14.08203125 C20.9765625 15.40203125 20.9765625 16.72203125 20.9765625 18.08203125 C13.53354153 15.68512619 6.25819098 12.92940684 -1.0234375 10.08203125 C-1.0234375 8.76203125 -1.0234375 7.44203125 -1.0234375 6.08203125 C-2.3434375 5.42203125 -3.6634375 4.76203125 -5.0234375 4.08203125 C-3.74496232 1.52508089 -2.98490247 0.12100956 0 0 Z " fill="#CBCCD8" transform="translate(58.0234375,71.91796875)"/>
<path d="M0 0 C0 3 0 3 -2.3125 5.9375 C-6.72420623 11.83643864 -7.86917519 19.34784089 -8.375 26.5625 C-9 30 -9 30 -11.5625 32 C-12.7690625 32.495 -12.7690625 32.495 -14 33 C-15.08688512 22.08284281 -11.16976737 13.09173467 -4.4296875 4.62109375 C-3.01146625 3.01300134 -1.53615327 1.49524978 0 0 Z " fill="#444575" transform="translate(52,39)"/>
<path d="M0 0 C0.33 1.32 0.66 2.64 1 4 C1.66 3.34 2.32 2.68 3 2 C6.125 1.875 6.125 1.875 9 2 C9.33 2.66 9.66 3.32 10 4 C9.443125 4.20625 8.88625 4.4125 8.3125 4.625 C5.71076821 5.95110234 5.71076821 5.95110234 3.875 9.125 C2.10703612 11.42279533 1.37566342 11.94229441 -1.54296875 12.390625 C-4.05376032 12.37645974 -6.50355453 12.26176321 -9 12 C-8.67 12.99 -8.34 13.98 -8 15 C-8.99 14.67 -9.98 14.34 -11 14 C-12.1875 10.9375 -12.1875 10.9375 -13 8 C-11.68 7.01 -10.36 6.02 -9 5 C-9 6.32 -9 7.64 -9 9 C-5.535 8.505 -5.535 8.505 -2 8 C-1.855625 6.865625 -1.71125 5.73125 -1.5625 4.5625 C-1 1 -1 1 0 0 Z " fill="#CDCFDB" transform="translate(88,87)"/>
<path d="M0 0 C-0.99 1.485 -0.99 1.485 -2 3 C-2.36141955 5.32914823 -2.69699525 7.66253478 -3 10 C-4 11 -4 11 -7.5625 11.0625 C-8.696875 11.041875 -9.83125 11.02125 -11 11 C-11.20625 10.195625 -11.4125 9.39125 -11.625 8.5625 C-12.07875 7.716875 -12.5325 6.87125 -13 6 C-16.05272465 5.10169161 -16.05272465 5.10169161 -19 5 C-19 4.34 -19 3.68 -19 3 C-13.25 3.875 -13.25 3.875 -11 5 C-11 4.34 -11 3.68 -11 3 C-7.63966885 -0.4947444 -4.66111848 -0.26891068 0 0 Z " fill="#373F74" transform="translate(90,85)"/>
<path d="M0 0 C0.99 0.33 1.98 0.66 3 1 C2.01 1.495 2.01 1.495 1 2 C1 3.65 1 5.3 1 7 C1.66 7.33 2.32 7.66 3 8 C3.33 7.34 3.66 6.68 4 6 C4.99 6.66 5.98 7.32 7 8 C7 8.66 7 9.32 7 10 C2.14270355 10.97299156 -2.4500625 11.12038805 -7.375 11.0625 C-8.11105469 11.05798828 -8.84710938 11.05347656 -9.60546875 11.04882812 C-11.40368158 11.03715142 -13.20185197 11.01922011 -15 11 C-15.33 10.01 -15.66 9.02 -16 8 C-15.28972656 7.93941406 -14.57945313 7.87882812 -13.84765625 7.81640625 C-12.46900391 7.69072266 -12.46900391 7.69072266 -11.0625 7.5625 C-10.14597656 7.48128906 -9.22945313 7.40007812 -8.28515625 7.31640625 C-6.03840268 7.23955024 -6.03840268 7.23955024 -5 6 C-5.66 5.34 -6.32 4.68 -7 4 C-5.35 4 -3.7 4 -2 4 C-1.34 2.68 -0.68 1.36 0 0 Z " fill="#394175" transform="translate(95,91)"/>
<path d="M0 0 C3 0.25 3 0.25 5 2.25 C5.33302312 5.3804173 5.47671956 7.42898298 3.875 10.1875 C2 11.25 2 11.25 -1.125 11.0625 C-2.07375 10.794375 -3.0225 10.52625 -4 10.25 C-5.38125018 7.48749964 -5.19079306 5.30268901 -5 2.25 C-3 0.25 -3 0.25 0 0 Z " fill="#545A8A" transform="translate(82,111.75)"/>
<path d="M0 0 C0 0.66 0 1.32 0 2 C-1.11375 2.45375 -2.2275 2.9075 -3.375 3.375 C-7.70355681 5.31538753 -9.05715517 6.83676109 -11 11 C-11 10.34 -11 9.68 -11 9 C-13.97 9 -16.94 9 -20 9 C-15.9054033 0.8108066 -8.58555629 -0.68139336 0 0 Z " fill="#3C4375" transform="translate(105,71)"/>
<path d="M0 0 C1.4540625 0.0309375 1.4540625 0.0309375 2.9375 0.0625 C3.5975 1.3825 4.2575 2.7025 4.9375 4.0625 C1.9675 3.5675 1.9675 3.5675 -1.0625 3.0625 C-1.0625 4.7125 -1.0625 6.3625 -1.0625 8.0625 C-0.7325 7.0725 -0.4025 6.0825 -0.0625 5.0625 C1.5875 5.0625 3.2375 5.0625 4.9375 5.0625 C4.9375 7.0425 4.9375 9.0225 4.9375 11.0625 C-1.38847793 11.42057422 -1.38847793 11.42057422 -4.0625 10 C-5.66217215 6.90063522 -4.79592508 4.36291286 -4.0625 1.0625 C-3.0625 0.0625 -3.0625 0.0625 0 0 Z " fill="#3A4178" transform="translate(93.0625,111.9375)"/>
<path d="M0 0 C2.875 -0.1875 2.875 -0.1875 6 0 C6.66 0.99 7.32 1.98 8 3 C7.01 3.495 7.01 3.495 6 4 C6.66 4.66 7.32 5.32 8 6 C8 7.32 8 8.64 8 10 C1.25 11.125 1.25 11.125 -1 10 C-1 9.01 -1 8.02 -1 7 C0.32 7 1.64 7 3 7 C1.35 6.01 -0.3 5.02 -2 4 C-1.34 2.68 -0.68 1.36 0 0 Z " fill="#454B7F" transform="translate(106,112)"/>
<path d="M0 0 C2.64 0 5.28 0 8 0 C8 3.63 8 7.26 8 11 C5.36 11 2.72 11 0 11 C0 7.37 0 3.74 0 0 Z " fill="#3B4278" transform="translate(32,112)"/>
<path d="M0 0 C2.31 0 4.62 0 7 0 C7.33 0.99 7.66 1.98 8 3 C7.01 3.33 6.02 3.66 5 4 C6.32 4.66 7.64 5.32 9 6 C8.125 9.875 8.125 9.875 7 11 C4.66055264 10.71269945 2.3260857 10.38063221 0 10 C-0.33 9.01 -0.66 8.02 -1 7 C0.65 7 2.3 7 4 7 C1.525 6.01 1.525 6.01 -1 5 C-0.67 3.35 -0.34 1.7 0 0 Z " fill="#42487D" transform="translate(143,112)"/>
<path d="M0 0 C2.97 0 5.94 0 9 0 C8 4 8 4 6 7 C6.99 7.33 7.98 7.66 9 8 C9 8.99 9 9.98 9 11 C6.03 11 3.06 11 0 11 C0.75 6.25 0.75 6.25 3 4 C2.01 3.67 1.02 3.34 0 3 C0 2.01 0 1.02 0 0 Z " fill="#3A4178" transform="translate(42,112)"/>
<path d="M0 0 C1.32 0 2.64 0 4 0 C4.50615298 1.26839526 5.00469099 2.53983102 5.5 3.8125 C5.7784375 4.52019531 6.056875 5.22789063 6.34375 5.95703125 C7 8 7 8 7 11 C6.01 11 5.02 11 4 11 C4 10.34 4 9.68 4 9 C2.8553125 9.495 2.8553125 9.495 1.6875 10 C-1 11 -1 11 -4 11 C-3.5247412 9.35303396 -3.04468109 7.70745272 -2.5625 6.0625 C-2.29566406 5.14597656 -2.02882812 4.22945313 -1.75390625 3.28515625 C-1 1 -1 1 0 0 Z " fill="#3F457B" transform="translate(56,112)"/>
<path d="M0 0 C5.30151793 4.30651163 7.54344528 13.15269132 8.3203125 19.69921875 C8.3125 21.875 8.3125 21.875 8 25 C5.525 24.01 5.525 24.01 3 23 C2.92652344 21.38931641 2.92652344 21.38931641 2.8515625 19.74609375 C2.77646602 18.30987358 2.70092124 16.87367681 2.625 15.4375 C2.5940625 14.73302734 2.563125 14.02855469 2.53125 13.30273438 C2.27047442 8.58704259 1.45341877 4.49614504 0 0 Z " fill="#52537F" transform="translate(111,48)"/>
<path d="M0 0 C2.97 0 5.94 0 9 0 C9 2.31 9 4.62 9 7 C7.35 7 5.7 7 4 7 C4 8.32 4 9.64 4 11 C2.68 11 1.36 11 0 11 C0 7.37 0 3.74 0 0 Z " fill="#484F82" transform="translate(22,112)"/>
<path d="M0 0 C0.33 1.32 0.66 2.64 1 4 C2.65 4 4.3 4 6 4 C6.66 6.31 7.32 8.62 8 11 C3.39611104 11.32120156 0.61079257 10.99179956 -3 8 C-3.8125 5.3125 -3.8125 5.3125 -4 3 C-3.01 3 -2.02 3 -1 3 C-0.67 2.01 -0.34 1.02 0 0 Z " fill="#026C85" transform="translate(90,40)"/>
<path d="M0 0 C3.125 -0.1875 3.125 -0.1875 6 0 C6.66 1.32 7.32 2.64 8 4 C5.03 3.505 5.03 3.505 2 3 C2 4.65 2 6.3 2 8 C2.66 8 3.32 8 4 8 C4 7.34 4 6.68 4 6 C5.32 6.33 6.64 6.66 8 7 C7.01 8.32 6.02 9.64 5 11 C2.03 10.505 2.03 10.505 -1 10 C-2.25 3.375 -2.25 3.375 0 0 Z " fill="#3F467B" transform="translate(133,112)"/>
<path d="M0 0 C1.71703125 0.16435547 1.71703125 0.16435547 3.46875 0.33203125 C4.6134375 0.42871094 5.758125 0.52539062 6.9375 0.625 C9.96875 1.14453125 9.96875 1.14453125 12.96875 3.14453125 C12.63875 4.46453125 12.30875 5.78453125 11.96875 7.14453125 C3.05875 5.16453125 3.05875 5.16453125 -6.03125 3.14453125 C-3.03125 0.14453125 -3.03125 0.14453125 0 0 Z " fill="#EBEBF0" transform="translate(45.03125,74.85546875)"/>
<path d="M0 0 C-0.721875 0.70125 -1.44375 1.4025 -2.1875 2.125 C-4.16809575 4.08315274 -5.91077296 6.11891464 -7.625 8.3125 C-8.800625 9.6428125 -8.800625 9.6428125 -10 11 C-10.99 11 -11.98 11 -13 11 C-13.45761159 7.0645403 -13.29742742 5.42755191 -11 2.125 C-6.96957293 -0.72988584 -4.84275759 -0.41040319 0 0 Z " fill="#98CDAC" transform="translate(99,32)"/>
<path d="M0 0 C3.3 0 6.6 0 10 0 C10 0.99 10 1.98 10 3 C9.01 3 8.02 3 7 3 C7 5.64 7 8.28 7 11 C5.68 11 4.36 11 3 11 C3 8.36 3 5.72 3 3 C2.01 3 1.02 3 0 3 C0 2.01 0 1.02 0 0 Z " fill="#3E457A" transform="translate(115,112)"/>
<path d="M0 0 C1.32 0 2.64 0 4 0 C4 2.64 4 5.28 4 8 C5.65 8 7.3 8 9 8 C9 8.99 9 9.98 9 11 C6.03 11 3.06 11 0 11 C0 7.37 0 3.74 0 0 Z " fill="#3C4379" transform="translate(67,112)"/>
<path d="M0 0 C4.62 0 9.24 0 14 0 C11.1709277 2.8290723 10.61855575 3.37611108 7 4 C6.67 5.32 6.34 6.64 6 8 C5.01 8 4.02 8 3 8 C2.957279 6.33388095 2.95936168 4.66617115 3 3 C3.33 2.67 3.66 2.34 4 2 C2.68 1.34 1.36 0.68 0 0 Z " fill="#8387A5" transform="translate(110,89)"/>
<path d="M0 0 C0 1.65 0 3.3 0 5 C5.94 4.505 5.94 4.505 12 4 C11.01 5.485 11.01 5.485 10 7 C7.6171875 7.29296875 7.6171875 7.29296875 4.875 7.1875 C3.96492188 7.16042969 3.05484375 7.13335937 2.1171875 7.10546875 C1.41851562 7.07066406 0.71984375 7.03585938 0 7 C0.33 7.99 0.66 8.98 1 10 C0.01 9.67 -0.98 9.34 -2 9 C-3.1875 5.9375 -3.1875 5.9375 -4 3 C-1.125 0 -1.125 0 0 0 Z " fill="#8D93AE" transform="translate(79,92)"/>
<path d="M0 0 C3.76706644 0.52320367 6.27388801 1.27388801 9 4 C9 5.32 9 6.64 9 8 C7.51800098 7.55090939 6.03944764 7.09043436 4.5625 6.625 C3.73878906 6.36976562 2.91507812 6.11453125 2.06640625 5.8515625 C0 5 0 5 -1 3 C-0.67 2.01 -0.34 1.02 0 0 Z " fill="#D4D5DF" transform="translate(70,82)"/>
<path d="M0 0 C1.32 0 2.64 0 4 0 C4 3.63 4 7.26 4 11 C2.68 11 1.36 11 0 11 C0 7.37 0 3.74 0 0 Z " fill="#373E76" transform="translate(126,112)"/>
<path d="M0 0 C1.32 0 2.64 0 4 0 C4 3.63 4 7.26 4 11 C2.68 11 1.36 11 0 11 C0 7.37 0 3.74 0 0 Z " fill="#494F82" transform="translate(99,112)"/>
<path d="M0 0 C2.25998595 3.59462331 2.20868087 6.56595675 2.125 10.75 C2.10695313 11.92046875 2.08890625 13.0909375 2.0703125 14.296875 C2.03550781 15.63492188 2.03550781 15.63492188 2 17 C1.01 17 0.02 17 -1 17 C-1.02699725 14.72923158 -1.04639453 12.45837179 -1.0625 10.1875 C-1.07990234 8.29064453 -1.07990234 8.29064453 -1.09765625 6.35546875 C-1 3 -1 3 0 0 Z " fill="#535A87" transform="translate(107,71)"/>
<path d="M0 0 C0.04241723 2.33294775 0.04092937 4.66702567 0 7 C-1 8 -1 8 -4.5625 8.0625 C-5.696875 8.041875 -6.83125 8.02125 -8 8 C-6.65580512 3.85539913 -4.87800266 0 0 0 Z " fill="#414879" transform="translate(103,77)"/>
<path d="M0 0 C2.97 0 5.94 0 9 0 C8.67 1.32 8.34 2.64 8 4 C4.7 4 1.4 4 -2 4 C-1.34 2.68 -0.68 1.36 0 0 Z " fill="#FBFBFC" transform="translate(85,80)"/>
<path d="M0 0 C3.6875 0.875 3.6875 0.875 7 2 C7 2.33 7 2.66 7 3 C5.35 3 3.7 3 2 3 C1.67 4.32 1.34 5.64 1 7 C-0.32 7 -1.64 7 -3 7 C-3.1875 4.625 -3.1875 4.625 -3 2 C-2.01 1.34 -1.02 0.68 0 0 Z " fill="#D1D2DC" transform="translate(98,91)"/>
<path d="M0 0 C1.32 0.66 2.64 1.32 4 2 C2.7934375 3.175625 2.7934375 3.175625 1.5625 4.375 C-0.98690417 6.71982856 -0.98690417 6.71982856 -2 9 C0.64 8.67 3.28 8.34 6 8 C6 8.66 6 9.32 6 10 C1.6835078 10.76173392 -1.74433453 11.16063604 -6 10 C-5.01 9.67 -4.02 9.34 -3 9 C-2.87625 7.88625 -2.7525 6.7725 -2.625 5.625 C-2 2 -2 2 0 0 Z " fill="#DFE0E6" transform="translate(97,76)"/>
<path d="M0 0 C0.1953125 6.0546875 0.1953125 6.0546875 0 8 C-0.66 8.66 -1.32 9.32 -2 10 C-2 7.69 -2 5.38 -2 3 C-3.65 3.33 -5.3 3.66 -7 4 C-6.6875 2.0625 -6.6875 2.0625 -6 0 C-3 -1 -3 -1 0 0 Z " fill="#9397B0" transform="translate(105,74)"/>
<path d="M0 0 C0.66 0.99 1.32 1.98 2 3 C4.55183404 4.20450304 4.55183404 4.20450304 7 5 C2.74938644 6.41687119 0.28148375 5.19320039 -4 4 C-4 4.66 -4 5.32 -4 6 C-4.66 6 -5.32 6 -6 6 C-6 4.35 -6 2.7 -6 1 C-3.03 1.495 -3.03 1.495 0 2 C0 1.34 0 0.68 0 0 Z " fill="#F1F2F5" transform="translate(141,114)"/>
<path d="M0 0 C0.33 0.99 0.66 1.98 1 3 C3.01508358 3.73323796 3.01508358 3.73323796 5 4 C4.54625 4.4125 4.0925 4.825 3.625 5.25 C1.94049626 7.06408095 1.00734029 8.75285627 0 11 C-0.33 10.34 -0.66 9.68 -1 9 C-3.52733235 8.34444881 -3.52733235 8.34444881 -6 8 C-6 7.67 -6 7.34 -6 7 C-4.35 7 -2.7 7 -1 7 C-0.67 4.69 -0.34 2.38 0 0 Z " fill="#F6F6F8" transform="translate(41,112)"/>
<path d="M0 0 C1.16402344 0.13341797 1.16402344 0.13341797 2.3515625 0.26953125 C3.50785156 0.38361328 3.50785156 0.38361328 4.6875 0.5 C6.9765625 1.08203125 6.9765625 1.08203125 10.9765625 4.08203125 C7.6765625 3.42203125 4.3765625 2.76203125 0.9765625 2.08203125 C0.9765625 2.74203125 0.9765625 3.40203125 0.9765625 4.08203125 C-1.0034375 4.08203125 -2.9834375 4.08203125 -5.0234375 4.08203125 C-3.74496232 1.52508089 -2.98490247 0.12100956 0 0 Z " fill="#B4B6C7" transform="translate(58.0234375,71.91796875)"/>
<path d="M0 0 C1.8125 2 1.8125 2 3 4 C-0.2830098 5.6415049 -3.42545033 4.51888624 -7 4 C-7 3.01 -7 2.02 -7 1 C-4.4254716 -0.2872642 -2.85291355 -0.34791629 0 0 Z " fill="#89DD15" transform="translate(101,33)"/>
<path d="M0 0 C1.65 0 3.3 0 5 0 C5 1.65 5 3.3 5 5 C3.0625 5.5625 3.0625 5.5625 1 6 C0 5 0 5 -0.0625 2.4375 C-0.041875 1.633125 -0.02125 0.82875 0 0 Z " fill="#9BDF54" transform="translate(96,38)"/>
<path d="M0 0 C0.33 0.66 0.66 1.32 1 2 C3.64 1.67 6.28 1.34 9 1 C8.67 2.65 8.34 4.3 8 6 C7.67 5.34 7.34 4.68 7 4 C4.03 4 1.06 4 -2 4 C-1.34 2.68 -0.68 1.36 0 0 Z " fill="#747798" transform="translate(87,76)"/>
<path d="M0 0 C1.75 0.0625 1.75 0.0625 4 1 C6.34687556 3.92397611 8.14013944 6.63364045 7.75 10.4375 C7.5025 10.953125 7.255 11.46875 7 12 C6.38125 10.63875 6.38125 10.63875 5.75 9.25 C4.10256403 6.19047606 2.46618157 4.38114082 0 2 C0 1.34 0 0.68 0 0 Z " fill="#525781" transform="translate(38,89)"/>
<path d="M0 0 C2.97 0.33 5.94 0.66 9 1 C9.33 1.99 9.66 2.98 10 4 C7.25 4.25 7.25 4.25 4 4 C1.625 2 1.625 2 0 0 Z " fill="#08526A" transform="translate(88,47)"/>
<path d="M0 0 C1.67542976 0.28604898 3.34385343 0.61781233 5 1 C4.01 1.495 4.01 1.495 3 2 C3.99 3.65 4.98 5.3 6 7 C4.1875 6.8125 4.1875 6.8125 2 6 C0.25 3.4375 0.25 3.4375 -1 1 C-0.67 0.67 -0.34 0.34 0 0 Z " fill="#3A4274" transform="translate(34,82)"/>
<path d="M0 0 C-3 3 -6 6 -9 9 C-9 5.76138705 -8.3749149 3.90259811 -7 1 C-4.53721199 -0.231394 -2.7204945 -0.07159196 0 0 Z " fill="#61BBC6" transform="translate(99,32)"/>
<path d="M0 0 C0 0.66 0 1.32 0 2 C-1.45635371 2.22174933 -2.91522956 2.42698698 -4.375 2.625 C-5.18710937 2.74101563 -5.99921875 2.85703125 -6.8359375 2.9765625 C-7.55007812 2.98429687 -8.26421875 2.99203125 -9 3 C-9.66 2.34 -10.32 1.68 -11 1 C-9.5437328 0.63743142 -8.08488815 0.28520207 -6.625 -0.0625 C-5.40683594 -0.35833984 -5.40683594 -0.35833984 -4.1640625 -0.66015625 C-2 -1 -2 -1 0 0 Z " fill="#EDF1F6" transform="translate(53,102)"/>
<path d="M0 0 C0.99 0 1.98 0 3 0 C3 1.65 3 3.3 3 5 C1.35 5 -0.3 5 -2 5 C-1.125 1.125 -1.125 1.125 0 0 Z " fill="#7DDA04" transform="translate(93,38)"/>
<path d="M0 0 C2.64 0.66 5.28 1.32 8 2 C6.3125 3.5625 6.3125 3.5625 4 5 C1.25 4.6875 1.25 4.6875 -1 4 C-0.67 2.68 -0.34 1.36 0 0 Z " fill="#474E7D" transform="translate(54,81)"/>
<path d="M0 0 C2.97 0 5.94 0 9 0 C9 0.66 9 1.32 9 2 C6.36 2.33 3.72 2.66 1 3 C0.67 2.01 0.34 1.02 0 0 Z " fill="#595F88" transform="translate(96,71)"/>
<path d="M0 0 C0.33 0 0.66 0 1 0 C1 1.65 1 3.3 1 5 C0.01 5 -0.98 5 -2 5 C-2.33 5.99 -2.66 6.98 -3 8 C-3.33 6.35 -3.66 4.7 -4 3 C-3.01 3 -2.02 3 -1 3 C-0.67 2.01 -0.34 1.02 0 0 Z " fill="#359A87" transform="translate(90,40)"/>
<path d="M0 0 C0.66 0 1.32 0 2 0 C1.45773019 3.79588866 -0.20127563 5.47211993 -3 8 C-2.25 2.25 -2.25 2.25 0 0 Z " fill="#B3D1DF" transform="translate(90,34)"/>
<path d="M0 0 C0.33 0.66 0.66 1.32 1 2 C-0.32 3.32 -1.64 4.64 -3 6 C-3.99 5.67 -4.98 5.34 -6 5 C-5.67 4.01 -5.34 3.02 -5 2 C-3.02 2.495 -3.02 2.495 -1 3 C-0.67 2.01 -0.34 1.02 0 0 Z " fill="#30A21D" transform="translate(103,44)"/>
<path d="M0 0 C2.125 0.9375 2.125 0.9375 4 2 C3.401875 2.28875 2.80375 2.5775 2.1875 2.875 C-0.19327792 4.04742026 -0.19327792 4.04742026 -3 6 C-2.625 3.5625 -2.625 3.5625 -2 1 C-1.34 0.67 -0.68 0.34 0 0 Z " fill="#505680" transform="translate(91,86)"/>
<path d="M0 0 C1.06671952 3.20015856 0.94845472 4.88544294 0.5625 8.1875 C0.46066406 9.08855469 0.35882813 9.98960938 0.25390625 10.91796875 C0.17011719 11.60503906 0.08632812 12.29210937 0 13 C-0.33 13 -0.66 13 -1 13 C-1 9.7 -1 6.4 -1 3 C-1.66 2.67 -2.32 2.34 -3 2 C-2.01 1.34 -1.02 0.68 0 0 Z " fill="#E0E1E9" transform="translate(106,71)"/>
<path d="M0 0 C0.99 0.33 1.98 0.66 3 1 C3 2.32 3 3.64 3 5 C1.02 5.33 -0.96 5.66 -3 6 C-2.34 5.34 -1.68 4.68 -1 4 C-0.3574765 1.93125966 -0.3574765 1.93125966 0 0 Z " fill="#67D003" transform="translate(101,39)"/>
</svg>
